<?xml version="1.0" encoding="UTF-8"?>
<svg id="Layer_1" data-name="Layer 1" xmlns="http://www.w3.org/2000/svg" viewBox="0 0 381 400">
  <defs>
    <style>
      .cls-1 {
        fill: none;
        stroke: #000;
        stroke-linecap: round;
        stroke-linejoin: round;
        stroke-width: 2px;
      }

      .cls-2, .cls-3 {
        stroke-width: 0px;
      }

      .cls-3 {
        fill: #fff;
      }
    </style>
  </defs>
  <path class="cls-3" d="m381,400H0C0,266.67,0,133.33,0,0c127,0,254,0,381,0,0,133.33,0,266.67,0,400ZM211.76,106.1c-6.78-11.64-13.56-23.29-21.04-36.15-.55,4.18-.89,6.69-1.22,9.21-6.91-1.1-6.8-1.21-10.56-5.1-.99-1.02-2.99-1.75-4.39-1.57-6.64.85-13.08,1.71-17.6,8.1-3.71,5.25-8.76,9.56-13.28,14.22-.6.62-1.57.89-2.86,1.59-.18-3.88-.34-7.21-.52-11.21-6.58,3.13-12.26,6.33-18.31,8.55-5.49,2.01-9.63,5.26-12.39,10.18-4.96,8.85-9.9,17.74-14.34,26.86-1.97,4.05-3.54,8.64-3.86,13.09-1.03,14.4-1.39,28.85-2.04,43.28-.34,7.62-.98,15.24-1.05,22.86-.03,3.28.85,6.62,1.7,9.83.53,1.99,2.2,3.69,2.65,5.68.73,3.23,1.43,6.64,1.08,9.86-.28,2.58-1.67,5.42-3.44,7.35-2.6,2.83-6.07,4.82-8.94,7.43-.75.68-.76,2.32-.87,3.53-.13,1.45.19,2.95.01,4.4-1.39,11.01-3.29,21.98-4.21,33.03-1.64,19.86-2.68,39.76-4.04,59.64-.3,4.46-.87,8.9-1.29,13.36-.23,2.43.66,3.75,3.37,3.63,16.6-.73,33.2-1.39,49.79-2.09,2.51-.11,3.87-1.13,3.94-3.98.28-10.94.72-21.89,1.2-32.82.22-5.11.85-10.21.95-15.32.17-9.13.41-18.27,0-27.38-.3-6.71,1.73-10.58,8.83-11.56,1.88-.26,3.27-3.59,5.2-3.99,7.44-1.55,14.99-2.63,22.53-3.57,3.53-.44,5.72,1.28,5.53,5.24-.15,2.99-.17,6-.17,8.99,0,8.45.23,16.9-.02,25.34-.11,3.91-1.64,7.79-1.62,11.68.05,8.24.57,16.49,1.24,24.7.1,1.18,2.13,3.16,3.27,3.16,13.12-.02,26.25-.36,39.37-.59,3.46-.06,4.56-1.78,4.29-5.13-.35-4.47-.44-8.98-.41-13.47.08-8.89.25-17.78.52-26.66.13-4.21.51-8.41.88-12.6.29-3.3.81-6.58,1.07-9.88.26-3.31.19-6.65.53-9.94.49-4.77,2.93-6.29,7.4-5.08,1.34.36,3.02.66,4.23.18,8.06-3.17,14.85,1.47,21.64,2.38,0,2.5-.25,4.09.05,5.55.68,3.27,2.84,6.74,2.24,9.68-1.44,7.07,3.76,14.46-1.32,21.24-.46.62.37,2.19.56,3.32,1.41,8.3,3.32,16.56,4.08,24.92.87,9.57.61,19.23,1.12,28.84.09,1.61,1.32,4.16,2.53,4.51,3.45,1.01,7.17,1.51,10.78,1.48,10.14-.07,20.28-.47,30.42-.81,4.26-.14,8.51-.45,13.12-.71-.93-7.42-2.1-14.28-2.59-21.2-.68-9.53-.65-19.11-1.33-28.64-.46-6.39-1.68-12.73-2.43-19.11-.47-3.96-1.07-7.94-.99-11.91.16-8.39-.56-16.4-5.38-23.72-6.96-10.56-13.52-21.38-20.41-31.99-2.11-3.24-2.39-5.46,1.5-7.57,3.49-1.9,6.77-4.28,9.84-6.81,1.13-.93,2.29-3.14,1.95-4.34-4.01-14.24-8.38-28.37-12.52-42.58-5.33-18.3-13.52-35.87-14.33-55.35-.12-2.82,0-5.81-.91-8.4-.96-2.74-2.44-6.07-4.72-7.41-5.26-3.09-11.14-5.13-16.77-7.61-10.72-4.72-21.43-9.44-32.16-14.17-.41.98-.65,1.28-.64,1.57.51,15.96.99,31.92,1.67,47.88.04,1.04,1.39,2.52,2.47,2.95,4.46,1.78,9.17,2.97,13.55,4.9,2.37,1.05,4.28,3.16,6.34,4.76,1.31-.1,3.58-.99,4.83-.22,2.5,1.54.96,3.61.14,5.95-1.24,3.53-4.93,7.04-1.49,11.59.96-.53,1.96-1.08,2.93-1.61.53,3.26,1.02,6.22,1.5,9.12-1.63.57-2.9,1.02-4.17,1.46.02.34.04.67.06,1.01,1.3.21,2.59.42,3.86.63,0,8.52-.04,16.8.04,25.07.01,1.46.54,2.9.75,4.36.78,5.33,1.77,10.65,2.12,16.01.09,1.29-1.74,3.16-3.14,3.93-.78.43-2.51-.83-3.79-1.4-1.59-.71-3.07-1.77-4.72-2.21-11.43-2.98-19.3-10.96-18.23-23.55.38-4.41,1.05-9.12-.04-13.26-2.83-10.76-3.75-21.49-2.21-32.48.39-2.76-.07-4.89-3.03-6.6-4.96-2.88-5.34-6.99-1.17-10.97,3.02-2.88,2.89-5.88,1.28-9.03-1.2-2.34-3-4.38-4.53-6.55.17.07.33.14.5.21Zm18.72,63.82c-.9.08-1.79.17-2.69.25,0,2.73-.04,5.46.16,8.18,0,.1,2.44.01,4.67.01-.86-3.4-1.5-5.92-2.14-8.44Z"/>
  <path class="cls-2" d="m211.25,105.89c1.53,2.17,3.33,4.21,4.53,6.55,1.61,3.15,1.73,6.14-1.28,9.03-4.16,3.98-3.79,8.09,1.17,10.97,2.95,1.72,3.41,3.84,3.03,6.6-1.53,10.99-.62,21.71,2.21,32.48,1.09,4.14.41,8.85.04,13.26-1.08,12.6,6.8,20.57,18.23,23.55,1.65.43,3.13,1.49,4.72,2.21,1.27.57,3.01,1.83,3.79,1.4,1.4-.77,3.23-2.63,3.14-3.93-.35-5.36-1.34-10.68-2.12-16.01-.21-1.46-.74-2.9-.75-4.36-.07-8.28-.04-16.55-.04-25.07-1.27-.21-2.57-.42-3.86-.63-.02-.34-.04-.67-.06-1.01,1.27-.44,2.54-.89,4.17-1.46-.48-2.9-.96-5.87-1.5-9.12-.97.54-1.97,1.08-2.93,1.61-3.43-4.55.26-8.07,1.49-11.59.82-2.35,2.36-4.41-.14-5.95-1.25-.77-3.53.12-4.83.22-2.06-1.59-3.97-3.71-6.34-4.76-4.38-1.94-9.09-3.13-13.55-4.9-1.08-.43-2.42-1.91-2.47-2.95-.68-15.95-1.16-31.92-1.67-47.88,0-.29.23-.59.64-1.57,10.73,4.73,21.44,9.45,32.16,14.17,5.63,2.48,11.51,4.52,16.77,7.61,2.27,1.34,3.75,4.67,4.72,7.41.91,2.59.79,5.58.91,8.4.81,19.48,9,37.05,14.33,55.35,4.14,14.2,8.5,28.34,12.52,42.58.34,1.2-.82,3.41-1.95,4.34-3.08,2.53-6.35,4.92-9.84,6.81-3.89,2.11-3.61,4.33-1.5,7.57,6.88,10.61,13.44,21.43,20.41,31.99,4.83,7.32,5.55,15.32,5.38,23.72-.08,3.96.52,7.95.99,11.91.76,6.38,1.98,12.71,2.43,19.11.68,9.53.64,19.11,1.33,28.64.5,6.91,1.66,13.78,2.59,21.2-4.61.25-8.86.56-13.12.71-10.14.34-20.28.74-30.42.81-3.61.02-7.33-.47-10.78-1.48-1.22-.36-2.45-2.91-2.53-4.51-.51-9.61-.25-19.27-1.12-28.84-.76-8.36-2.67-16.62-4.08-24.92-.19-1.13-1.02-2.7-.56-3.32,5.08-6.79-.12-14.18,1.32-21.24.6-2.94-1.56-6.41-2.24-9.68-.3-1.47-.05-3.05-.05-5.55-6.79-.91-13.58-5.55-21.64-2.38-1.21.48-2.89.18-4.23-.18-4.47-1.21-6.91.31-7.4,5.08-.34,3.3-.27,6.64-.53,9.94-.26,3.3-.78,6.58-1.07,9.88-.37,4.19-.75,8.39-.88,12.6-.27,8.88-.45,17.77-.52,26.66-.04,4.49.05,9,.41,13.47.26,3.35-.83,5.07-4.29,5.13-13.12.23-26.25.57-39.37.59-1.14,0-3.17-1.98-3.27-3.16-.67-8.22-1.19-16.46-1.24-24.7-.02-3.89,1.5-7.77,1.62-11.68.25-8.44.02-16.89.02-25.34,0-3,.02-6,.17-8.99.19-3.96-2-5.68-5.53-5.24-7.55.94-15.09,2.02-22.53,3.57-1.93.4-3.32,3.74-5.2,3.99-7.09.98-9.13,4.85-8.83,11.56.41,9.11.17,18.25,0,27.38-.1,5.11-.73,10.21-.95,15.32-.47,10.94-.92,21.88-1.2,32.82-.07,2.85-1.44,3.87-3.94,3.98-16.6.7-33.2,1.36-49.79,2.09-2.71.12-3.6-1.2-3.37-3.63.41-4.45.99-8.9,1.29-13.36,1.35-19.88,2.39-39.79,4.04-59.64.91-11.05,2.82-22.02,4.21-33.03.18-1.44-.14-2.94-.01-4.4.1-1.22.12-2.85.87-3.53,2.86-2.61,6.34-4.61,8.94-7.43,1.77-1.93,3.16-4.77,3.44-7.35.35-3.22-.35-6.64-1.08-9.86-.45-1.99-2.12-3.69-2.65-5.68-.86-3.21-1.73-6.55-1.7-9.83.07-7.62.7-15.24,1.05-22.86.65-14.43,1.01-28.88,2.04-43.28.32-4.45,1.89-9.04,3.86-13.09,4.44-9.12,9.38-18.01,14.34-26.86,2.76-4.92,6.9-8.17,12.39-10.18,6.04-2.22,11.72-5.42,18.31-8.55.19,4,.34,7.34.52,11.21,1.29-.7,2.26-.97,2.86-1.59,4.52-4.66,9.57-8.97,13.28-14.22,4.52-6.39,10.95-7.24,17.6-8.1,1.4-.18,3.4.55,4.39,1.57,3.76,3.89,3.65,4,10.56,5.1.33-2.52.67-5.03,1.22-9.21,7.49,12.86,14.27,24.51,21.04,36.14-1.19-.89-2.31-1.89-3.57-2.65-2.85-1.72-4.6-.34-4.9,2.46-.19,1.77.18,4.73,1.24,5.25,2.02,1,4.72.64,7.13.84-.14-2.04-.27-4.07-.41-6.11Zm-46.61,20.27c-1.81.24-2.67.19-3.4.47-7.15,2.76-14.44,5.24-21.29,8.62-1.7.84-2.2,4.61-2.71,7.14-.33,1.64.63,3.52.47,5.23-.43,4.43-1.47,8.82-1.71,13.26-.46,8.31-.68,16.64-.7,24.96-.02,6.82.2,13.66.66,20.47.31,4.64,2.76,7.76,7.86,5.36,4.33-2.04,9.25-3.06,14.03-3.83,4.31-.7,6.42-2.23,6.33-6.97-.26-13.11-.11-26.22-.24-39.33-.01-1.37-1.2-2.76-1.12-4.09.28-4.44,1.11-8.84,1.3-13.28.11-2.52-.98-5.09-.89-7.61.12-3.33.88-6.64,1.43-10.41Zm-.44,138.94c-3.4-2.89-7.28-3.57-11.45-2.23-.91.29-1.49,1.63-2.22,2.49,1.21.64,3.35,1.99,3.49,1.82,2.85-3.76,6.69-1.48,10.19-2.08Zm30.31-165.27c-1.3,2.52-2.6,3.92-2.57,5.3.03,1.19,1.56,2.34,2.43,3.51,1.16-1.35,2.82-2.56,3.27-4.11.26-.88-1.48-2.34-3.13-4.7Z"/>
  <path class="cls-3" d="m211.25,105.89c.14,2.04.27,4.07.41,6.11-2.42-.2-5.11.16-7.13-.84-1.06-.52-1.43-3.48-1.24-5.25.3-2.81,2.05-4.18,4.9-2.46,1.26.76,2.39,1.76,3.57,2.65-.17-.07-.34-.13-.5-.2Z"/>
  <path class="cls-2" d="m230.48,169.92c.64,2.52,1.28,5.05,2.14,8.44-2.22,0-4.66.09-4.67-.01-.21-2.71-.16-5.45-.16-8.18.9-.08,1.79-.17,2.69-.25Z"/>
  <path class="cls-3" d="m164.64,126.17c-.55,3.76-1.31,7.07-1.43,10.41-.09,2.52,1,5.09.89,7.61-.19,4.44-1.02,8.84-1.3,13.28-.08,1.33,1.11,2.72,1.12,4.09.13,13.11-.03,26.23.24,39.33.09,4.74-2.02,6.27-6.33,6.97-4.77.78-9.7,1.8-14.03,3.83-5.09,2.4-7.55-.72-7.86-5.36-.46-6.81-.68-13.64-.66-20.47.03-8.32.25-16.65.7-24.96.24-4.44,1.28-8.82,1.71-13.26.17-1.72-.8-3.59-.47-5.23.51-2.53,1.02-6.3,2.71-7.14,6.84-3.38,14.14-5.86,21.29-8.62.73-.28,1.59-.23,3.4-.47Z"/>
  <path class="cls-3" d="m164.2,265.11c-3.5.59-7.33-1.68-10.19,2.08-.13.18-2.28-1.18-3.49-1.82.73-.86,1.31-2.2,2.22-2.49,4.18-1.34,8.06-.66,11.45,2.23Z"/>
  <path class="cls-3" d="m194.51,99.83c1.65,2.36,3.39,3.82,3.13,4.7-.45,1.56-2.12,2.76-3.27,4.11-.87-1.17-2.4-2.32-2.43-3.51-.03-1.38,1.27-2.78,2.57-5.3Z"/>
  <path class="cls-1" d="m212.5,107.5c.5,2.17,1,4.33,1.5,6.5"/>
  <path class="cls-1" d="m190.5,70.5c.67,2.33,1.33,4.67,2,7"/>
  <path class="cls-1" d="m166,157.5c-1.17.33-2.33.67-3.5,1"/>
  <path class="cls-1" d="m202,99c4.43-.63,6.23,2.8,8.5,5.5"/>
  <path class="cls-1" d="m146.5,266c1.83.67,3.71,1.98,5.49,1.87,4.52-.28,9.01-1.21,13.51-1.87"/>
  <path class="cls-1" d="m252,152c-1.83.17-3.67.33-5.5.5"/>
  <path class="cls-1" d="m165.5,73.5c.17,1.83.33,3.67.5,5.5"/>
  <path class="cls-1" d="m144.5,265v5.5"/>
  <path class="cls-1" d="m83.5,247.5c.17,1.5.33,3,.5,4.5"/>
  <path class="cls-1" d="m229.5,171.5c-.33,2.67-.67,5.33-1,8"/>
  <path class="cls-1" d="m241.5,146.5c1.13.45,2.26.91,3.58,1.44-.41.67-1,1.61-1.58,2.56"/>
  <path class="cls-1" d="m93,216c-1,.58-2,1.17-3,1.75"/>
</svg>