<?xml version="1.0" encoding="UTF-8"?>
<svg id="Layer_1" data-name="Layer 1" xmlns="http://www.w3.org/2000/svg" viewBox="0 0 200 300">
  <defs>
    <style>
      .cls-1 {
        stroke-width: 0px;
      }
    </style>
  </defs>
  <path class="cls-1" d="m532,0h36c17.2,6.68,34.4,11.12,53.48,8.87,24.53-2.88,49.23-2.57,73.07,6.11,5.32,1.94,11.07,2.29,16.78,1.14,3.63-.73,7.41-1.08,10.86.34,14.35,5.92,28.16,12.85,34.67,28.17,4.72,11.12,12.33,19.62,21.43,27.14,6.25,5.16,11.17,11.38,14.46,18.87,1.4,3.18,2.7,6.65.81,9.58-5.52,8.57-6.31,19.78-15.12,26.51-3.93,3-3.59,6.53-.64,10.41,3.45,4.53,6.87,9,11.53,12.37,4.7,3.4,7.59,8.1,10.59,13.01,5.91,9.63,7.01,20.75,10.79,31.01,3.63,9.85,4.63,20.09,2.86,30.51-1.24,7.28-1.73,14.69-.71,21.91,1.29,9.08.34,18.02-.74,26.87-1.14,9.3-1.74,18.57-1.65,27.89.07,7.68-1.83,14.37-7.32,20.03-5.84,6.04-10.03,12.99-12.27,21.33-2.47,9.18-7.92,16.88-15.02,23.21-10,8.92-14.28,20.83-16.76,33.29-1.88,9.43-4.5,18.76-5.3,28.44-.45,5.43-3.18,10.14-7.16,13.96-3.64,3.5-4.75,7.84-4.66,12.72.2,11.4,1.74,22.55,5.34,33.41,5.31,16.01,15.2,27.91,30.79,34.82,10.05,4.46,19.97,9.22,30.1,13.48,16.45,6.91,31.86,15.22,43.55,29.21,2.41,2.89,5.45,5.02,9.4,5.07,12.41.15,24.3,3.98,36.6,5,13.65,1.14,27.35,3.05,39.33,10.3,16.01,9.69,33.44,16.48,49.87,25.25,12.16,6.49,22.5,15.34,31.51,25.82,10.88,12.66,20.93,25.94,30.04,39.89,15.1,23.11,32,45.19,41.79,71.42,1.71,4.59,4.55,8.01,9.07,10.11,8.27,3.84,15.17,9.56,21.6,15.94,1.44,1.43,2.64,4.13,6.49,2.16-1.98-8.51-3.81-17.24-6.06-25.86-10.24-39.27-17.07-79.5-33.33-117.08-3.31-7.66-6.36-15.35-11.21-22.23-6.23-8.86-10.44-18.65-11.34-29.53-.97-11.7-3.6-22.98-7.04-34.17-1.75-5.7-2.42-11.74-3.86-17.55-.84-3.41.47-8.44-3.48-9.74-3.62-1.19-4.95,3.66-7.21,5.87-8.68,8.52-18.54,7.31-24.54-3.44-1.8-3.24-3.63-6.37-6.28-8.94-8.28-8.03-9.23-17.24-4.64-27.43,2.2-4.87,4.76-9.8,4.62-15.19-.31-12.28,3.84-23.54,6.99-35.08,1.83-6.71,4.76-13.95,2.35-20.55-3.53-9.66-4.24-18.57.1-27.99,1.04-2.27.42-5.26.75-7.9.71-5.62,1.59-11.1,5.09-15.95,6.07-8.42,14.44-10.25,23.89-8.65,5.2.88,9.82.6,14.24-2.53,3.36-2.38,6.77-2.29,10.03.59,3.54,3.14,7.64,4.09,12.04,1.99,4.17-2,6.89-.03,9.59,2.85,8.64,9.21,18,17.74,24.26,29.05,3.37,6.1,8.25,11.26,13.44,16.03,4.66,4.28,9.18,8.71,13.62,13.22,4.6,4.67,6.75,10.26,7.47,16.94,2.32,21.49,6.47,42.76,6.44,64.54-.01,7.95.72,15.95.48,23.94-.35,11.49,1.36,22.58,5.91,33.18,3.69,8.59,6.26,17.55,8.74,26.55,3.81,13.81,8.2,27.51,14.09,40.55,10.28,22.76,21.52,45.09,31.98,67.77,12.74,27.61,27.66,53.97,44.82,79.01,20.9,30.5,33.65,64.23,40.53,100.23,2.81,14.68,4.09,29.66,7.04,44.36.91,4.55,1.44,9.21,1.79,13.85,1.3,17.01,4.14,33.69,9.46,49.95,2.79,8.53,5.2,17.19,7.78,25.79v14c-1.75,6.05-2.06,12.58-5.54,18.05-4.01,6.29-6.1,13.21-7.9,20.37-4.83,19.21-14.07,26.59-33.89,27.49-5.65.26-11.27.42-16.91,1.25-18.54,2.72-37.15,3.55-55.6-.57-8.47-1.89-16.51-5.07-23.41-10.66-17.43-14.11-36.66-25.39-56.5-35.73-35.52-18.52-67.29-41.63-92.04-73.79-7.89-10.26-14.95-21.17-24.06-30.6-18.1-18.73-34.49-38.78-45.03-63.05-6.96-16.03-19.54-27.62-32.76-38.36-5.84-4.75-9.35-3.71-11.3,2.93-4.91,16.68-12.42,32.34-18.19,48.68-10.31,29.2-20.11,58.58-31.25,87.49-5.15,13.36-10.64,26.63-14.39,40.49-2.09,7.71-4.61,15.37-4.77,23.45-.21,10.38-2.09,20.52-3.65,30.73-1.55,10.17-3.7,20.35-1.85,30.78,2.61,14.76,5.03,29.56,7.57,44.33,1.25,7.25,3.37,14.21,6.26,21.01,5.73,13.5,11.26,27.08,12.62,41.94.95,10.32.68,20.65.62,30.97-.06,10.46,1.69,20.48,4.85,30.44,7.55,23.79,16.44,47.22,20.17,72.1.48,3.21,2.11,6.3,3.52,9.31,9.09,19.4,15.88,39.5,20.19,60.53,3.07,14.97,6.61,29.81,12.07,44.27,6.1,16.14,11.6,32.7,11.58,50.37-.02,15.33-.08,30.66-.16,45.99-.07,14.38-1.31,28.7-4.53,42.67-9.28,40.26-18.39,80.57-29.68,120.32-10.13,35.66-16.46,72.05-21.73,108.67-3.22,22.42-5.93,44.93-10.01,67.19-4.63,25.23-11.46,50-18.38,74.71-7.73,27.58-18.46,54.23-24.52,82.34-4.84,22.47-10.93,44.65-13.45,67.59-3.07,27.92-1.95,55.91-1.84,83.89.05,11.64.08,23.29,1.08,34.95,1.85,21.56,8.58,41.85,16.52,61.57,10.8,26.8,16.6,54.79,22.84,82.74,1.54,6.88,1.79,13.83,2.08,20.84.69,16.43-2.46,32.49-3.99,48.72-3.12,33.17-5.81,66.31-13.93,98.81-5.74,22.95-8.15,46.55-11.19,70.01-3.82,29.46-12.33,57.99-18.15,87.06-5.17,25.8-10.61,51.56-18.03,76.86-3.57,12.16-5.24,24.77-6.74,37.34-.75,6.27-1.03,12.52,1.21,18.75,7.91,22,6.57,43.77-2.5,65.15-2.32,5.46-3.32,10.88-.25,16.32,3.12,5.54,5.66,11.32,7.59,17.37,1.48,4.64,4.53,7.04,9.41,7.63,8.27.99,16.47,2.76,24.76,3.37,46.87,3.47,93.31,10.77,140.02,15.65,41.09,4.29,82.21,8.2,123.36,11.72,22.88,1.96,45.81,3.42,68.63,6.08,7.6.88,15.15,2.32,22.64,3.87,7.96,1.65,12.86,6.2,13.85,14.82.76,6.64,1.33,13.26,1.34,19.92.04,21.99.44,44-.09,65.98-.35,14.68,1.55,29.26.74,43.94-.77,13.99-6.12,23.89-18.73,31.66-30.07,18.54-61.05,35.55-90.89,54.46-15.75,9.98-32.43,18.35-48.67,27.47-22.92,12.88-45.48,26.46-68.02,40.04-29.95,18.04-60.73,34.76-91.52,51.37-21.37,11.53-42.27,24.16-65.5,31.95h-6c-6.69-2.78-13.87-1.13-20.76-2.29-25.98-4.39-52.31-5.34-78.47-7.98-14.51-1.46-29.31-1.71-42.92-8.32-2.91-1.41-6.42-1.74-9.71-2.21-20.43-2.93-40.86-5.85-61.31-8.59-27.38-3.67-54.8-7-82.16-10.77-35.6-4.9-71.14-10.16-106.73-15.15-39.88-5.58-79.58-12.39-119.54-17.49-29.05-3.71-57.92-8.82-87-12.31-37.02-4.44-73.8-10.43-110.7-15.6-34.93-4.9-69.81-10.18-104.71-15.29,0-14,0-28,0-42,2.64-5.52,3.75-11.33,3.65-17.44-.13-7.67.47-15.28,1.33-22.92,1.27-11.24,2.16-22.55,2.5-33.85.42-13.99,2.13-27.88,2.56-41.87.37-11.97,5.54-22.12,17.36-27.06,18.73-7.83,36.57-17.85,56.41-22.98,3.52-.91,6.96-2.34,10.26-3.9,20.19-9.6,41.22-17.21,62.21-24.66,28.88-10.26,57.75-20.53,86.31-31.64,15.83-6.16,31.4-13.07,47.47-18.52,38.84-13.18,76.82-28.46,114.14-45.42,13.36-6.08,26.96-11.51,40.87-16.18,2.82-.95,5.82-1.98,8.73-1.93,14.97.23,29.97-.22,44.63,4.08,11.9,3.49,24.23,4.3,36.6,4.4,5.28.04,9.7-1.6,13.47-5.41,10.8-10.92,21.39-22.13,29.34-35.29,7.31-12.12,15.73-23.08,26.3-32.46,13.56-12.03,17.66-27.34,16.68-45.06-1.04-18.8-7.61-35.73-15.22-52.44-10.78-23.67-24.12-46.06-35.53-69.38-20.78-42.49-48.25-80.7-75.61-118.77-23.67-32.93-43.96-67.53-62.37-103.41-11.56-22.54-19.38-46.8-31.04-69.31-5.44-10.49-8.72-21.68-10.8-33.13-1.2-6.61-4.08-11.58-8.36-16.53-9.35-10.8-19.77-20.96-25.63-34.29-6.71-15.27-11.72-31.18-16.46-47.16-1.62-5.47-2.25-11.12-2.07-16.81.52-16.31-.14-32.65,1.64-48.93,1.24-11.37.31-22.51-3.13-33.58-5.18-16.64-7.85-33.94-7.79-51.24.14-37.74-5.76-75.03-7.32-112.65-1.06-25.6-3.08-51-1.74-76.79,1.51-29.07,5.8-57.67,9.92-86.3,4.99-34.66,14.93-68.33,23.34-102.28,6.33-25.56,12.45-51.19,16.63-77.16,5.88-36.51,8.81-73.39,11.91-110.22.78-9.31.77-18.62-.02-27.95-2.1-24.6-2.09-49.19-.06-73.84,1.23-14.91,3.37-29.77,3.01-44.84-.42-17.65-.18-35.32-.13-52.99.02-6.36-.56-12.6-1.74-18.86-3.27-17.4-5.71-34.98-3.84-52.67,4.05-38.35-1.42-75.72-10.46-112.81-4.5-18.45-10.73-36.45-14.35-55.11-4.83-24.86-8.2-49.93-10.44-75.16-1.09-12.29-3.53-24.2-8.48-35.77-8.89-20.8-17.64-41.67-23.24-63.73-4.34-17.14-9.38-34.18-9.45-51.97-.09-22.19-3.38-43.73-9.65-64.99-5.39-18.27-8.2-37.08-8.77-56.14-.89-29.95,1.15-59.94-1.97-89.87-2.08-19.97-4.53-39.9-12.93-58.25-10.44-22.79-18.79-46.29-26.39-70.1-3.87-12.11-9.16-23.54-15.14-34.77-10.96-20.59-22.72-40.88-31.24-62.58-7.91-20.16-15.72-40.36-24.58-60.12-10.87-24.24-17.65-49.69-21.05-75.83-2.47-18.96-6.89-37.25-12.24-55.5-5.16-17.57-10.38-35.2-14.11-53.11-5-24.08-3.21-48.5.46-72.59,2.44-16.06,10.2-29.29,25.39-37.46,19.68-10.59,39.23-21.29,60.89-27.5,8.64-2.48,17.18-5.36,25.66-8.35,20.49-7.24,41.46-12.88,62.97-15.55,21.49-2.67,42.75-6.8,64.36-8.72,31.89-2.83,63.7-5.64,95.77-3.09,17.29,1.37,34.64.46,51.94-.12,6.9-.23,14.03-.43,20.65-3.13Zm19.72,100.14c-.17-2.4-1.64-3.29-3.37-3.3-4.65-.01-9.42-.38-13.94.47-27.49,5.13-55.22,9.28-81.65,18.98-5.02,1.84-10.23,2.93-15.53,3.7-21.76,3.19-41.56,11.66-60.33,22.73-15.49,9.14-30.84,18.38-47.5,25.45-14.65,6.22-27.17,16.75-42.37,22.15-3.46,1.23-5.37,4.57-4,8.15,3.4,8.9,4.94,18.63,12.96,25.41,22.72,19.24,39.49,43.09,52.98,69.45,3.64,7.1,7.61,14.1,12.11,20.68,10.83,15.84,16.98,33.07,17.19,52.35.04,3.99-.05,8.22,2.81,11.41,11.53,12.87,21.64,27.27,36.7,36.47,14.37,8.78,26.58,20.01,38.21,31.97,11.21,11.52,21.15,23.98,27.84,38.78,1.09,2.42,2.39,4.81,3.97,6.92,3.04,4.08,6.11,4.62,10.29,1.68,2.14-1.5,3.81-3.68,5.71-5.53,10.26-10.05,13.47-23.53,17.52-36.51,3.28-10.53.7-14.53-10.21-17.18-11.33-2.75-22.64-5.48-33.71-9.27-7.81-2.68-11.95-8.04-13.77-15.69-1.1-4.61-1.37-9.26-.15-13.86,2.52-9.54,1.65-19.08.89-28.76-1.3-16.54-3.72-33.24.41-49.67,2.14-8.52,2.74-16.99,2.93-25.68.13-6.04-1.23-10.66-5.7-15.14-8.11-8.14-7.81-18.19-.05-26.76,2-2.21,4.28-4.23,6.68-6,5.08-3.76,7.17-8.22,5.45-14.7-2.02-7.64-.6-15.09,2.31-22.45,3.19-8.1,6.75-15.92,11.77-23.07,7.28-10.34,14.22-20.91,21.11-31.53,5.81-8.97,13.01-16.91,22.76-22.01,3.06-1.6,5.83-3.74,6.32-7.29.88-6.41,4.65-10.81,9.09-15.01,2.14-2.03,4.07-4.43,4.28-7.35Zm82.88,1791c-3.96.81-4.18,3.44-4.87,5.52-3.27,9.8-6.83,19.53-9.52,29.49-8.52,31.58-20.01,62.17-30.94,92.92-15.88,44.68-24.2,90.72-26.74,137.84-1.33,24.59.46,49.35-3.74,73.81-.91,5.3,1.08,9.64,3.78,14.07,17.15,28.19,34.29,56.38,52.6,83.83,26.64,39.94,42.65,84.18,53.61,130.53.31,1.29.67,2.58,1.17,3.8.5,1.23,1.15,2.66,2.74,2.5,2.12-.21,2.4-1.98,2.41-3.69,0-.99-.19-1.99-.32-2.98-2.46-18.27-2.44-36.6.07-54.81,3.92-28.46,2.07-56.32-5.68-84.03-3.6-12.86-8.26-25.34-11.85-38.16-1.91-6.82-4.69-13.07-8.43-19.1-8.56-13.78-14.42-28.63-14.78-45.07-.28-12.9-3.28-25.16-8.4-36.8-9.92-22.57-11.91-45.64-5.12-69.27,3.11-10.82,3.66-21.59,2.17-32.63-.44-3.29-.55-6.64-.66-9.97-.83-26.17,2.99-51.86,8.47-77.32,5.72-26.55,6.93-53.49,7.45-80.49.13-6.79-.49-13.73-3.42-20Z"/>
</svg>